<?xml version="1.0" encoding="UTF-8"?>
<svg version="1.1" xmlns="http://www.w3.org/2000/svg" width="512" height="512">
<path d="M0 0 C8.97629114 7.63947458 17.27064597 16.09368664 25.61328125 24.41015625 C26.54350129 25.33613523 26.54350129 25.33613523 27.49251366 26.28082085 C30.76467904 29.53815147 34.03408256 32.79822271 37.30102539 36.06079102 C40.64716851 39.40142407 44.00251951 42.73264829 47.36004353 46.0618372 C49.97068575 48.65376049 52.57450332 51.25246043 55.17656517 53.85299492 C56.41028711 55.08371865 57.64647521 56.31197596 58.88530922 57.53755379 C72.79847701 71.31221189 83.13997151 84.61732481 84 105 C82.85208979 128.53215939 64.89335262 144.29859468 49.25 159.875 C47.87134766 161.25945312 47.87134766 161.25945312 46.46484375 162.671875 C45.57410156 163.56132812 44.68335938 164.45078125 43.765625 165.3671875 C42.96930664 166.16237793 42.17298828 166.95756836 41.35253906 167.77685547 C39.00003237 169.99996941 36.5552318 172.01530443 34 174 C34.58396306 179.02802096 36.87263491 182.91246206 39.3125 187.25 C39.75255371 188.03632813 40.19260742 188.82265625 40.64599609 189.6328125 C47.61657819 201.83437669 55.96489337 213.24872787 65 224 C65.62479248 224.74999268 65.62479248 224.74999268 66.26220703 225.51513672 C78.41360825 240.07163842 91.22497133 254.62483037 105.64453125 266.98046875 C107.42678267 268.50853506 109.19213435 270.05634156 110.94921875 271.61328125 C124.29388077 283.369151 138.54562388 294.16331734 154 303 C154.57540527 303.33676758 155.15081055 303.67353516 155.74365234 304.02050781 C157.50822635 305.05004217 159.28274409 306.05947863 161.0625 307.0625 C162.10535156 307.65160156 163.14820313 308.24070312 164.22265625 308.84765625 C167.31169788 310.12932612 167.97532495 310.14289968 171 309 C172.81111684 307.60071414 172.81111684 307.60071414 174.50830078 305.78466797 C175.17644806 305.10661102 175.84459534 304.42855408 176.5329895 303.72994995 C177.60333939 302.62225754 177.60333939 302.62225754 178.6953125 301.4921875 C179.44279755 300.73334259 180.19028259 299.97449768 180.9604187 299.19265747 C184.15564753 295.94851253 187.33317336 292.68723788 190.51171875 289.42675781 C192.83734369 287.04635576 195.17232006 284.67540296 197.5078125 282.3046875 C198.55994431 281.21521317 198.55994431 281.21521317 199.6333313 280.10372925 C206.22101897 273.42102546 213.50653022 267.58065796 222.3125 264.125 C223.27800781 263.73570312 224.24351562 263.34640625 225.23828125 262.9453125 C237.92643307 258.60226761 251.37053549 260.62645292 263.25 266.3125 C267.69027514 268.94791804 271.44210774 272.02083634 275.17578125 275.55859375 C275.80384171 276.14960876 276.43190216 276.74062378 277.07899475 277.34954834 C287.34794356 287.09325091 297.32801053 297.14101674 307.33618164 307.15087891 C310.34866705 310.16346668 313.36802954 313.16906151 316.3891058 316.17303085 C318.749369 318.52210538 321.10500221 320.87578219 323.45941353 323.23072052 C324.57038988 324.34053155 325.68295326 325.44875661 326.79725456 326.55522919 C340.6543198 340.3238267 352.79983395 353.96991114 353.3125 374.3125 C352.94880193 395.89905002 339.94389059 410.33333899 325.390625 424.98046875 C324.5019574 425.87816483 323.61328979 426.7758609 322.69769287 427.70075989 C320.83142659 429.58141999 318.96243515 431.45937945 317.09082031 433.3347168 C315.19586368 435.23398829 313.3095567 437.14123336 311.43066406 439.05639648 C291.31114758 459.53581706 291.31114758 459.53581706 280 465 C278.96842773 465.49951172 277.93685547 465.99902344 276.87402344 466.51367188 C247.17259466 480.23472094 210.82933886 472.75093044 181 463 C180.1322998 462.71672852 179.26459961 462.43345703 178.37060547 462.14160156 C119.1791374 442.44376056 63.54389457 406.27585939 18 364 C16.88682503 362.97905078 15.77353491 361.95822709 14.66015625 360.9375 C-10.81716177 337.47673959 -10.81716177 337.47673959 -20.90625 324.59375 C-23.26907965 321.66666252 -25.80313902 318.92876232 -28.375 316.1875 C-34.34065034 309.77209959 -39.69325939 302.96373988 -45 296 C-45.56734863 295.26249512 -46.13469727 294.52499023 -46.71923828 293.76513672 C-69.80193486 263.73094238 -89.55728841 231.62545489 -105 197 C-105.474375 195.96230469 -105.94875 194.92460937 -106.4375 193.85546875 C-123.19500819 156.19661204 -137.09138339 110.81292267 -122.75 70.25 C-116.57505926 55.23533754 -105.70002732 44.61376855 -94.36914062 33.38769531 C-91.30262825 30.34125578 -88.28784148 27.30785337 -85.5 24 C-63.23610835 -2.16581081 -32.85659155 -22.94501372 0 0 Z M-48 30 C-53.87949938 35.57682433 -59.61492696 41.30280595 -65.36376953 47.01367188 C-67.20282378 48.83614049 -69.04723056 50.65322387 -70.89697266 52.46484375 C-73.59215915 55.10494824 -76.27023218 57.7614174 -78.9453125 60.421875 C-79.76419952 61.21809265 -80.58308655 62.0143103 -81.42678833 62.83465576 C-93.69491997 75.14792894 -98.27274188 89.8143131 -98.24658203 106.92285156 C-97.9975344 123.15529839 -93.93212316 138.62875343 -89 154 C-88.70416016 154.93489258 -88.40832031 155.86978516 -88.10351562 156.83300781 C-77.30293304 190.37821348 -60.0533112 222.1327378 -40 251 C-39.57509277 251.61391602 -39.15018555 252.22783203 -38.71240234 252.86035156 C-29.10140322 266.68830512 -18.83601004 280.11143516 -8 293 C-7.34596191 293.78141357 -7.34596191 293.78141357 -6.67871094 294.57861328 C7.08597234 310.98814362 21.64931909 327.43894467 38.0234375 341.3046875 C40.50860194 343.4362317 42.90440146 345.65683599 45.3125 347.875 C50.721228 352.79068749 56.26101789 357.47609134 62 362 C62.69786621 362.55397461 63.39573242 363.10794922 64.11474609 363.67871094 C114.10175563 403.17900837 184.25653814 448.55767673 251 443 C264.39672491 441.05144144 276.31526854 432.90589017 284.85546875 422.6484375 C288.27306872 418.70327024 291.917176 415.03546329 295.6328125 411.375 C296.23621964 410.77948334 296.83962677 410.18396667 297.46131897 409.57040405 C299.98401474 407.084096 302.50941856 404.60070475 305.04443359 402.12695312 C306.91416462 400.29987938 308.77403357 398.4632062 310.6328125 396.625 C311.19751251 396.0789209 311.76221252 395.5328418 312.34402466 394.97021484 C317.93661651 389.41355688 322.62994126 383.36669311 323.3125 375.3125 C322.94213302 360.73591398 304.92576676 347.73652876 295.24609375 337.97265625 C294.66187212 337.38311094 294.07765049 336.79356564 293.47572517 336.18615532 C290.39392285 333.0779365 287.30866543 329.97319094 284.22094727 326.87084961 C281.68980193 324.3262938 279.16616361 321.77462615 276.64868164 319.21655273 C273.57380561 316.09215777 270.4866453 312.98040831 267.39045906 309.87713432 C266.22492091 308.70493457 265.06359857 307.52852551 263.90685844 306.3476429 C253.87776354 295.61289726 253.87776354 295.61289726 240.50047302 290.84217834 C230.60694304 291.27320178 224.38507787 298.23806155 217.91796875 304.9296875 C216.16351624 306.71234272 214.40895557 308.49489148 212.65429688 310.27734375 C209.91951586 313.07416185 207.18819853 315.87428241 204.4597168 318.67724609 C201.80866888 321.39507887 199.14517984 324.10025928 196.48046875 326.8046875 C195.27840034 328.05184036 195.27840034 328.05184036 194.05204773 329.32418823 C188.22044954 335.23068172 181.94374968 340.6696819 173.77734375 342.8671875 C163.51691416 342.89541427 155.78943016 338.81545563 147 334 C145.85023682 333.3817334 145.85023682 333.3817334 144.67724609 332.75097656 C123.46817188 321.2640117 104.12488825 306.52554999 86.40625 290.1953125 C84.38268968 288.34914221 82.32853711 286.55735617 80.25390625 284.76953125 C75.79764793 280.8792624 71.60771932 276.75536305 67.4375 272.5625 C66.72142578 271.85029297 66.00535156 271.13808594 65.26757812 270.40429688 C60.63823356 265.76652766 56.26840397 260.96972076 52 256 C51.0743495 254.95185787 50.14734819 253.90490653 49.21875 252.859375 C1.83125179 198.93686244 1.83125179 198.93686244 1.46875 169.80078125 C2.85581003 162.48811917 6.97167926 157.43768908 12.25 152.4375 C13.05244141 151.64956055 13.05244141 151.64956055 13.87109375 150.84570312 C16.77139992 148.02462148 19.75584574 145.32879308 22.8203125 142.6875 C27.62446795 138.51501485 32.12528935 134.05863945 36.625 129.5625 C37.44484375 128.75490234 38.2646875 127.94730469 39.109375 127.11523438 C49.84637632 116.78756979 49.84637632 116.78756979 54 103 C52.57360942 89.93242179 37.02246041 78.84559762 28.20703125 70.00390625 C27.56082006 69.35486769 26.91460888 68.70582912 26.24881554 68.03712273 C22.84050884 64.61394931 19.4294355 61.19356305 16.01586914 57.77563477 C12.50215742 54.25640268 8.99784969 50.7279567 5.49556446 47.19735813 C2.78537271 44.46853802 0.0684916 41.74645356 -2.65026283 39.02616692 C-3.94568648 37.72772552 -5.23861931 36.42679396 -6.52895164 35.12329292 C-8.33023039 33.30492173 -10.14077824 31.49629221 -11.95385742 29.68969727 C-12.47919067 29.15514923 -13.00452393 28.6206012 -13.54577637 28.06985474 C-25.638166 16.11212938 -36.90559541 19.66453218 -48 30 Z " fill="#000000" transform="translate(128,39)"/>
<path d="M0 0 C1.08853271 0.27360352 2.17706543 0.54720703 3.29858398 0.82910156 C45.46538394 11.61142311 83.93094992 30.8210662 116.9375 59.375 C117.783125 60.09171875 118.62875 60.8084375 119.5 61.546875 C131.92993666 72.38107655 143.93294004 84.25137134 153.9375 97.375 C154.71867188 98.35082031 155.49984375 99.32664062 156.3046875 100.33203125 C172.1402328 120.21115741 184.49029884 142.46462172 193.97802734 165.99707031 C194.82939317 168.10707112 195.7031683 170.20605615 196.58203125 172.3046875 C203.12536437 188.63712319 212.67567808 212.54261526 209.9375 230.375 C207.5744136 235.19206073 204.75456073 238.0119136 199.9375 240.375 C194.29139441 241.2771605 189.74430074 240.61679585 184.9375 237.375 C181.68034372 233.84410399 180.29647619 231.06425575 179.296875 226.38671875 C179.03551758 225.21778076 178.77416016 224.04884277 178.50488281 222.84448242 C178.23514648 221.59642822 177.96541016 220.34837402 177.6875 219.0625 C169.78524704 184.35787781 156.19702097 151.45275313 134.31689453 123.16015625 C132.91506102 121.34596039 131.53320796 119.5176892 130.15234375 117.6875 C124.55172119 110.33656011 118.63269924 103.76171736 111.9375 97.375 C109.58556851 95.0447453 107.25182099 92.70619309 104.97265625 90.3046875 C74.87616653 58.95666058 30.23555499 37.89265754 -11.9765625 29.35546875 C-12.78593262 29.18942139 -13.59530273 29.02337402 -14.42919922 28.85229492 C-15.96645801 28.54443373 -17.50713469 28.25296549 -19.05126953 27.98168945 C-24.34420342 26.93541182 -27.21507543 25.18781505 -31.0625 21.375 C-33.71992332 16.83166336 -34.55532187 13.3936407 -33.63671875 8.296875 C-32.39003545 4.12430231 -30.27901089 1.24817326 -26.76928711 -1.27099609 C-18.72317408 -5.29586692 -8.26213117 -2.13629596 0 0 Z " fill="#000000" transform="translate(302.0625,2.625)"/>
<path d="M0 0 C6.65818856 5.30967039 12.68058151 11.33731979 18.69482422 17.3515625 C19.30583984 17.91617188 19.91685547 18.48078125 20.54638672 19.0625 C42.80429016 39.94766931 61.99713562 77.06329122 63.13232422 107.7890625 C62.98917269 112.72128342 62.18809554 115.6694657 58.69482422 119.3515625 C54.90328098 122.32331261 51.47967762 123.09972811 46.69482422 123.3515625 C41.8495125 122.36272337 37.79543096 120.25740144 34.69482422 116.3515625 C33.25541375 113.12379358 32.50054063 109.78480967 31.69482422 106.3515625 C24.75459336 78.86459553 13.30538619 56.73937235 -6.30517578 36.3515625 C-6.92392578 35.65804687 -7.54267578 34.96453125 -8.18017578 34.25 C-25.57350985 15.38133849 -51.54239553 4.15068015 -76.16601562 -1.19628906 C-82.40142346 -2.55391607 -86.7197765 -3.56855237 -90.45751953 -8.96484375 C-92.46315475 -12.94838652 -92.60366088 -16.24578225 -92.30517578 -20.6484375 C-90.41260233 -25.90558597 -87.77882427 -28.51688356 -83.30517578 -31.6484375 C-57.90828849 -38.90469101 -19.21520779 -14.68202323 0 0 Z " fill="#000000" transform="translate(356.30517578125,124.6484375)"/>
</svg>
